<svg width="24" height="24" viewBox="0 0 24 24" fill="none" xmlns="http://www.w3.org/2000/svg">
<path d="M21.7 5.71C21.4577 5.19887 21.0754 4.76692 20.5975 4.46426C20.1196 4.16159 19.5657 4.00062 19 4H5C4.43433 4.00062 3.88042 4.16159 3.40253 4.46426C2.92464 4.76692 2.54235 5.19887 2.3 5.71C2.10344 6.11168 2.00085 6.55281 2 7V17C2.00234 17.7949 2.31916 18.5566 2.88126 19.1187C3.44337 19.6808 4.20507 19.9977 5 20H19C19.7949 19.9977 20.5566 19.6808 21.1187 19.1187C21.6808 18.5566 21.9977 17.7949 22 17V7C21.9991 6.55281 21.8966 6.11168 21.7 5.71Z" fill="#99D1F0"/>
<path d="M21.7001 5.71L14.12 13.29C13.8419 13.5689 13.5115 13.7902 13.1477 13.9412C12.7839 14.0922 12.3939 14.1699 12 14.1699C11.6062 14.1699 11.2162 14.0922 10.8524 13.9412C10.4886 13.7902 10.1582 13.5689 9.88005 13.29L2.30005 5.71C2.5424 5.19887 2.92469 4.76692 3.40258 4.46426C3.88047 4.16159 4.43438 4.00062 5.00005 4H19C19.5657 4.00062 20.1196 4.16159 20.5975 4.46426C21.0754 4.76692 21.4577 5.19887 21.7001 5.71Z" fill="#328DFE"/>
</svg>
