<svg width="24" height="24" viewBox="0 0 24 24" fill="none" xmlns="http://www.w3.org/2000/svg">
<path d="M18.9142 21.9356C18.7846 21.9357 18.6551 21.9276 18.5265 21.9112C14.3556 21.3706 10.4799 19.4681 7.50112 16.499C4.53225 13.5202 2.62991 9.64448 2.08948 5.47367C2.0342 5.04571 2.07075 4.61088 2.1967 4.19815C2.32266 3.78543 2.53512 3.40429 2.81994 3.08012C3.10082 2.76102 3.44645 2.5054 3.83382 2.33028C4.22119 2.15516 4.64141 2.06455 5.06653 2.06449H8.09289C8.8007 2.06116 9.48661 2.30976 10.0279 2.76581C10.5692 3.22187 10.9306 3.85564 11.0475 4.55375C11.0817 4.78227 11.1237 5.00688 11.173 5.23051C11.2721 5.67598 11.4014 6.11418 11.5602 6.54204C11.7281 7.01053 11.7148 7.5249 11.5228 7.98406C11.3308 8.44322 10.974 8.81398 10.5226 9.02349L10.0656 9.23638C11.1792 11.1976 12.8026 12.821 14.7638 13.9346L14.9772 13.4766C15.1874 13.0258 15.5583 12.6697 16.0173 12.4781C16.4763 12.2864 16.9903 12.273 17.4586 12.4405C17.8875 12.599 18.3265 12.7285 18.7726 12.8282C18.9948 12.877 19.2194 12.919 19.4445 12.9522C20.1431 13.0686 20.7774 13.4298 21.2339 13.9713C21.6904 14.5128 21.9392 15.1991 21.9357 15.9073V18.9336C21.9356 19.3588 21.845 19.7791 21.6699 20.1665C21.4948 20.554 21.2392 20.8997 20.9201 21.1807C20.3655 21.6678 19.6524 21.9362 18.9142 21.9356Z" fill="#99D1F0"/>
<path d="M21.6426 2.35742C21.5498 2.26454 21.4396 2.19086 21.3182 2.14059C21.1969 2.09033 21.0669 2.06445 20.9356 2.06445C20.8043 2.06445 20.6742 2.09033 20.5529 2.14059C20.4316 2.19086 20.3214 2.26454 20.2285 2.35742L16.9355 5.65042V4.06445C16.9355 3.79923 16.8302 3.54488 16.6427 3.35734C16.4551 3.16981 16.2008 3.06445 15.9355 3.06445C15.6703 3.06445 15.416 3.16981 15.2284 3.35734C15.0409 3.54488 14.9355 3.79923 14.9355 4.06445V8.06445C14.9355 8.19578 14.9614 8.32583 15.0116 8.44717C15.0618 8.56852 15.1355 8.67877 15.2284 8.77164C15.3212 8.8645 15.4315 8.93816 15.5528 8.9884C15.6742 9.03864 15.8042 9.06448 15.9355 9.06445H19.9355C20.2008 9.06445 20.4551 8.95909 20.6427 8.77156C20.8302 8.58402 20.9355 8.32967 20.9355 8.06445C20.9355 7.79923 20.8302 7.54488 20.6427 7.35734C20.4551 7.16981 20.2008 7.06445 19.9355 7.06445H18.3496L21.6426 3.77145C21.7355 3.67862 21.8092 3.56839 21.8594 3.44708C21.9097 3.32577 21.9356 3.19574 21.9356 3.06443C21.9356 2.93311 21.9097 2.80309 21.8594 2.68178C21.8092 2.56047 21.7355 2.45025 21.6426 2.35742Z" fill="#328DFE"/>
</svg>
