<svg width="164" height="35" viewBox="0 0 164 35" fill="none" xmlns="http://www.w3.org/2000/svg">
<path d="M34.5808 17.5C34.5808 27.165 26.8396 35 17.2904 35C7.74117 35 0 27.165 0 17.5C0 7.83502 7.74117 0 17.2904 0C26.8396 0 34.5808 7.83502 34.5808 17.5Z" fill="#328DFE"/>
<path fill-rule="evenodd" clip-rule="evenodd" d="M24.5934 10.6786C25.4268 9.80789 25.7308 9.09307 25.8425 7.74155L25.9017 7.02465L20.6748 7.0349C17.8001 7.04046 15.261 7.07687 15.0324 7.11572C12.6599 7.51866 10.6208 9.32952 9.89956 11.6737C9.65058 12.4828 9.58739 13.9592 9.76554 14.802C10.054 16.166 10.5449 17.0484 11.6246 18.1434C12.3965 18.9263 13.2422 19.4326 14.3318 19.7642C15.1009 19.9982 15.1197 19.9994 18.3894 20.0385C21.5737 20.0765 21.6824 20.0834 21.9446 20.264C22.3741 20.5601 22.5554 20.8737 22.5981 21.3945C22.6452 21.9688 22.4293 22.4244 21.9536 22.7546C21.651 22.9646 21.5956 22.9711 19.862 22.9982L18.0814 23.0262L17.7352 22.4334C17.1427 21.419 16.5641 20.9487 15.6799 20.763C15.3903 20.7023 13.8853 20.6675 11.5402 20.6675C8.33662 20.6675 7.81779 20.6857 7.56683 20.8068C7.10939 21.0277 6.81782 21.7271 6.99108 22.1882C7.07737 22.418 7.8062 23.5998 9.26877 25.8814C9.55982 26.3354 9.96326 26.858 10.1655 27.0425C10.6772 27.5098 11.4562 27.8523 12.256 27.9619C13.1352 28.0822 20.8853 28.0835 21.8317 27.9634C23.486 27.7534 24.5671 27.2092 25.7948 25.9683C26.4702 25.2857 26.6729 25.0149 26.9661 24.4041C27.161 23.9979 27.3856 23.3918 27.4654 23.0572C27.6591 22.2445 27.6613 20.7219 27.4699 19.9776C26.954 17.9716 25.3168 16.1075 23.4756 15.4292C22.5558 15.0904 22.4143 15.0777 18.9974 15.0266L15.5924 14.9758L15.2716 14.7129C14.8719 14.3853 14.6323 13.9439 14.6323 13.5353C14.6323 13.0755 14.9701 12.4911 15.3685 12.2616C15.6981 12.0718 15.7673 12.0676 18.4981 12.0661C20.0341 12.0653 21.6181 12.0241 22.0182 11.9745C23.0721 11.8439 23.8553 11.4498 24.5934 10.6786ZM8.26202 22.1548C8.17693 22.0408 8.10722 21.9114 8.10722 21.8673C8.10722 21.7311 15.3016 21.8232 15.6626 21.964C16.1086 22.1379 16.4841 22.5404 16.9257 23.3179C18.1713 25.5109 19.1466 26.5253 20.2206 26.7453C20.4586 26.7941 19.0203 26.8164 16.3495 26.8056C12.5146 26.7899 12.0607 26.7731 11.7018 26.6342C11.0137 26.3679 10.6753 25.979 9.51664 24.1233C8.91178 23.1546 8.34719 22.2688 8.26202 22.1548Z" fill="white"/>
<path d="M51.8712 12.7659H47.3337V24.6821H44.5952V12.7659H40.0578V10.3179H51.8712V12.7659Z" fill="white"/>
<path d="M57.3628 10.3179H60.1613L65.3784 24.6821H62.54L61.2207 21.1012H56.2634L54.9642 24.6821H52.1257L57.3628 10.3179ZM60.721 19.1387L58.7621 13.211L56.7232 19.1387H60.721Z" fill="white"/>
<path d="M68.1343 24.6821V10.3179H77.6691V12.7659H70.8928V16.4682H76.5297V18.7341H70.8928V24.6821H68.1343Z" fill="white"/>
<path d="M80.8117 24.6821V10.3179H90.3464V12.7659H83.5701V16.4682H89.207V18.7341H83.5701V24.6821H80.8117Z" fill="white"/>
<path d="M93.489 24.6821V10.3179H96.2475V24.6821H93.489Z" fill="white"/>
<path d="M103.166 15.4566V24.6821H100.408V10.3179H102.607L109.943 19.7861V10.3381H112.701V24.6821H110.402L103.166 15.4566Z" fill="white"/>
<path d="M122.63 24.7832C121.711 24.7832 120.838 24.5944 120.011 24.2168C119.199 23.8391 118.479 23.3198 117.853 22.659C117.24 21.9846 116.76 21.2023 116.413 20.3121C116.067 19.422 115.894 18.4576 115.894 17.4191C115.894 16.4345 116.067 15.5106 116.413 14.6474C116.76 13.7707 117.246 13.0019 117.873 12.341C118.499 11.6802 119.232 11.1609 120.071 10.7832C120.911 10.4056 121.824 10.2168 122.81 10.2168C124.143 10.2168 125.282 10.5067 126.228 11.0867C127.188 11.6532 127.907 12.4085 128.387 13.3526L126.328 14.8902C125.968 14.1753 125.462 13.6291 124.809 13.2514C124.169 12.8738 123.47 12.685 122.71 12.685C122.11 12.685 121.564 12.8131 121.071 13.0694C120.578 13.3256 120.151 13.6763 119.792 14.1214C119.432 14.5665 119.152 15.079 118.952 15.659C118.766 16.2389 118.672 16.8526 118.672 17.5C118.672 18.1879 118.772 18.8218 118.972 19.4017C119.185 19.9817 119.478 20.4875 119.852 20.9191C120.238 21.3507 120.684 21.6946 121.191 21.9509C121.697 22.1936 122.257 22.315 122.87 22.315C123.59 22.315 124.276 22.1262 124.929 21.7486C125.595 21.3709 126.015 21.0405 126.588 20.3121V23.0019C125.402 24.2967 124.216 24.7832 122.63 24.7832ZM126.588 19.341H123.729V17.2977H128.867V24.6821H126.588V19.341Z" fill="white"/>
<path d="M132.216 24.6821V21.7688H134.415V24.6821H132.216Z" fill="white"/>
<path d="M149.659 20.9798C149.659 21.789 149.452 22.4701 149.039 23.0231C148.626 23.5626 148.066 23.974 147.36 24.2572C146.667 24.5405 145.907 24.6821 145.081 24.6821H138.225V10.3179H145.821C146.487 10.3179 147.06 10.5 147.54 10.8642C148.033 11.2148 148.406 11.6734 148.659 12.2399C148.926 12.7929 149.059 13.3728 149.059 13.9798C149.059 14.6676 148.886 15.3218 148.539 15.9422C148.193 16.5626 147.687 17.0212 147.02 17.3179C147.833 17.5607 148.473 17.999 148.939 18.6329C149.419 19.2669 149.659 20.0491 149.659 20.9798ZM146.88 20.4538C146.88 20.0896 146.807 19.7659 146.66 19.4827C146.514 19.1859 146.314 18.9566 146.061 18.7948C145.821 18.6195 145.541 18.5318 145.221 18.5318H140.984V22.315H145.081C145.414 22.315 145.714 22.2341 145.981 22.0723C146.261 21.8969 146.481 21.6676 146.64 21.3844C146.8 21.1012 146.88 20.7909 146.88 20.4538ZM140.984 12.7052V16.3266H144.662C144.968 16.3266 145.248 16.2524 145.501 16.104C145.754 15.9557 145.954 15.7466 146.101 15.4769C146.261 15.2071 146.341 14.8834 146.341 14.5058C146.341 14.1416 146.267 13.8247 146.121 13.5549C145.987 13.2852 145.801 13.0761 145.561 12.9277C145.334 12.7794 145.075 12.7052 144.781 12.7052H140.984Z" fill="white"/>
<path d="M153.966 10.3179L157.464 17.0751L161.022 10.3179H164L158.843 19.6647V24.6821H156.104V19.6243L150.967 10.3179H153.966Z" fill="white"/>
</svg>
