<svg width="152" height="32" viewBox="0 0 152 32" fill="none" xmlns="http://www.w3.org/2000/svg">
<path d="M31.4145 16C31.4145 24.8366 24.3822 32 15.7073 32C7.03239 32 0 24.8366 0 16C0 7.16344 7.03239 0 15.7073 0C24.3822 0 31.4145 7.16344 31.4145 16Z" fill="#328DFE"/>
<path d="M18.8151 20.2408C18.8151 19.9151 18.7657 19.6229 18.6667 19.3641C18.5759 19.0969 18.4027 18.8547 18.1469 18.6376C17.8912 18.4122 17.5323 18.1909 17.0703 17.9738C16.6083 17.7567 16.0102 17.5313 15.276 17.2975C14.4593 17.0303 13.6838 16.7297 12.9496 16.3957C12.2236 16.0617 11.5801 15.6735 11.0191 15.2309C10.4664 14.78 10.0292 14.2582 9.70743 13.6654C9.39394 13.0725 9.23719 12.3837 9.23719 11.5988C9.23719 10.839 9.40219 10.1501 9.73218 9.53223C10.0622 8.906 10.5242 8.37161 11.1181 7.92907C11.7121 7.47819 12.4133 7.13167 13.2218 6.88953C14.0385 6.64739 14.9336 6.52632 15.9071 6.52632C17.2353 6.52632 18.3944 6.76846 19.3844 7.25274C20.3744 7.73703 21.1416 8.40084 21.6861 9.24416C22.2388 10.0875 22.5152 11.0519 22.5152 12.1373H18.8275C18.8275 11.603 18.7162 11.1354 18.4934 10.7346C18.2789 10.3255 17.9489 10.004 17.5034 9.77019C17.0662 9.5364 16.5135 9.4195 15.8452 9.4195C15.2018 9.4195 14.6655 9.5197 14.2365 9.7201C13.8076 9.91214 13.4858 10.1752 13.2713 10.5091C13.0568 10.8348 12.9496 11.2022 12.9496 11.6113C12.9496 11.9203 13.0238 12.2 13.1723 12.4505C13.3291 12.701 13.5601 12.9347 13.8653 13.1518C14.1705 13.3689 14.5459 13.5735 14.9914 13.7655C15.4369 13.9576 15.9525 14.1455 16.5382 14.3292C17.5199 14.6297 18.382 14.9679 19.1245 15.3437C19.8752 15.7194 20.5022 16.1411 21.0055 16.6086C21.5087 17.0762 21.8882 17.6064 22.1439 18.1993C22.3997 18.7921 22.5275 19.4643 22.5275 20.2157C22.5275 21.009 22.3749 21.7187 22.0697 22.3449C21.7644 22.9712 21.3231 23.5014 20.7456 23.9355C20.1681 24.3697 19.4793 24.6995 18.679 24.925C17.8788 25.1504 16.9837 25.2632 15.9937 25.2632C15.1028 25.2632 14.2242 25.1463 13.3579 24.9125C12.4917 24.6703 11.7039 24.3071 10.9944 23.8228C10.2932 23.3385 9.73218 22.7207 9.31144 21.9692C8.8907 21.2177 8.68034 20.3285 8.68034 19.3014H12.4051C12.4051 19.8692 12.4917 20.3493 12.665 20.7418C12.8382 21.1342 13.0816 21.4515 13.3951 21.6936C13.7168 21.9358 14.0963 22.1111 14.5335 22.2197C14.979 22.3282 15.4658 22.3825 15.9937 22.3825C16.6372 22.3825 17.1652 22.2906 17.5777 22.107C17.9984 21.9233 18.3078 21.6686 18.5058 21.343C18.712 21.0173 18.8151 20.6499 18.8151 20.2408Z" fill="white"/>
<path d="M47.2252 10.9684H42.5336V23.3684H39.7022V10.9684H35.0107V8.42105H47.2252V10.9684Z" fill="white"/>
<path d="M51.6632 8.42105H54.5566L59.9508 23.3684H57.016L55.652 19.6421H50.5265L49.1831 23.3684H46.2483L51.6632 8.42105ZM55.1353 17.6L53.1099 11.4316L51.0018 17.6H55.1353Z" fill="white"/>
<path d="M61.5603 23.3684V8.42105H71.4187V10.9684H64.4124V14.8211H70.2406V17.1789H64.4124V23.3684H61.5603Z" fill="white"/>
<path d="M73.4279 23.3684V8.42105H83.2863V10.9684H76.2801V14.8211H82.1083V17.1789H76.2801V23.3684H73.4279Z" fill="white"/>
<path d="M85.2956 23.3684V8.42105H88.1477V23.3684H85.2956Z" fill="white"/>
<path d="M94.0613 13.7684V23.3684H91.2092V8.42105H93.4827L101.068 18.2737V8.4421H103.92V23.3684H101.543L94.0613 13.7684Z" fill="white"/>
<path d="M113.069 23.4737C112.118 23.4737 111.216 23.2772 110.362 22.8842C109.521 22.4912 108.777 21.9509 108.13 21.2632C107.496 20.5614 107 19.7474 106.642 18.8211C106.283 17.8947 106.104 16.8912 106.104 15.8105C106.104 14.786 106.283 13.8246 106.642 12.9263C107 12.014 107.503 11.214 108.15 10.5263C108.798 9.8386 109.556 9.29824 110.424 8.90526C111.292 8.51228 112.236 8.31579 113.255 8.31579C114.633 8.31579 115.811 8.61754 116.789 9.22105C117.781 9.81052 118.525 10.5965 119.021 11.5789L116.893 13.1789C116.521 12.4351 115.997 11.8667 115.322 11.4737C114.661 11.0807 113.937 10.8842 113.152 10.8842C112.532 10.8842 111.967 11.0175 111.457 11.2842C110.947 11.5509 110.506 11.9158 110.134 12.3789C109.762 12.8421 109.473 13.3754 109.266 13.9789C109.073 14.5825 108.977 15.2211 108.977 15.8947C108.977 16.6105 109.08 17.2702 109.287 17.8737C109.507 18.4772 109.811 19.0035 110.196 19.4526C110.596 19.9018 111.057 20.2596 111.581 20.5263C112.105 20.7789 112.683 20.9053 113.317 20.9053C114.061 20.9053 114.771 20.7088 115.446 20.3158C116.135 19.9228 116.569 19.6 117.161 18.8421V21.4526C115.935 22.8 114.709 23.4737 113.069 23.4737ZM117.161 17.8105H114.206V15.6842H119.517V23.3684H117.161V17.8105Z" fill="white"/>
<path d="M121.617 23.3684V20.3368H123.891V23.3684H121.617Z" fill="white"/>
<path d="M138.412 19.5158C138.412 20.3579 138.198 21.0667 137.771 21.6421C137.344 22.2035 136.765 22.6316 136.035 22.9263C135.319 23.2211 134.533 23.3684 133.679 23.3684H126.59V8.42105H134.444C135.133 8.42105 135.725 8.61053 136.221 8.98947C136.731 9.35439 137.117 9.83158 137.379 10.4211C137.654 10.9965 137.792 11.6 137.792 12.2316C137.792 12.9474 137.613 13.6281 137.255 14.2737C136.896 14.9193 136.373 15.3965 135.684 15.7053C136.524 15.9579 137.186 16.414 137.668 17.0737C138.164 17.7333 138.412 18.5474 138.412 19.5158ZM135.539 18.9684C135.539 18.5895 135.463 18.2526 135.312 17.9579C135.16 17.6491 134.954 17.4105 134.692 17.2421C134.444 17.0596 134.154 16.9684 133.824 16.9684H129.442V20.9053H133.679C134.024 20.9053 134.334 20.8211 134.609 20.6526C134.898 20.4702 135.126 20.2316 135.291 19.9368C135.456 19.6421 135.539 19.3193 135.539 18.9684ZM129.442 10.9053V14.6737H133.245C133.562 14.6737 133.851 14.5965 134.113 14.4421C134.375 14.2877 134.582 14.0702 134.733 13.7895C134.898 13.5088 134.981 13.1719 134.981 12.7789C134.981 12.4 134.905 12.0702 134.754 11.7895C134.616 11.5088 134.423 11.2912 134.175 11.1368C133.941 10.9825 133.672 10.9053 133.369 10.9053H129.442Z" fill="white"/>
<path d="M141.625 8.42105L145.242 15.4526L148.921 8.42105H152L146.668 18.1474V23.3684H143.836V18.1053L138.525 8.42105H141.625Z" fill="white"/>
</svg>
