<svg width="35" height="35" viewBox="0 0 35 35" fill="none" xmlns="http://www.w3.org/2000/svg">
<path d="M35 17.5C35 27.165 27.165 35 17.5 35C7.83502 35 0 27.165 0 17.5C0 7.83502 7.83502 0 17.5 0C27.165 0 35 7.83502 35 17.5Z" fill="#328DFE"/>
<path fill-rule="evenodd" clip-rule="evenodd" d="M24.8915 10.6786C25.7351 9.80789 26.0428 9.09307 26.1558 7.74155L26.2157 7.02465L20.9255 7.0349C18.0159 7.04046 15.446 7.07687 15.2146 7.11572C12.8134 7.51866 10.7496 9.32952 10.0196 11.6737C9.76757 12.4828 9.70361 13.9592 9.88392 14.802C10.1759 16.166 10.6727 17.0484 11.7655 18.1434C12.5468 18.9263 13.4027 19.4326 14.5056 19.7642C15.284 19.9982 15.303 19.9994 18.6123 20.0385C21.8352 20.0765 21.9453 20.0834 22.2106 20.264C22.6453 20.5601 22.8289 20.8737 22.8721 21.3945C22.9197 21.9688 22.7012 22.4244 22.2197 22.7546C21.9135 22.9646 21.8574 22.9711 20.1028 22.9982L18.3005 23.0262L17.9502 22.4334C17.3505 21.419 16.7649 20.9487 15.8699 20.763C15.5768 20.7023 14.0536 20.6675 11.6801 20.6675C8.43769 20.6675 7.91257 20.6857 7.65856 20.8068C7.19557 21.0277 6.90047 21.7271 7.07583 22.1882C7.16316 22.418 7.90083 23.5998 9.38113 25.8814C9.67571 26.3354 10.084 26.858 10.2887 27.0425C10.8066 27.5098 11.5951 27.8523 12.4046 27.9619C13.2945 28.0822 21.1385 28.0835 22.0964 27.9634C23.7707 27.7534 24.8649 27.2092 26.1075 25.9683C26.791 25.2857 26.9963 25.0149 27.293 24.4041C27.4902 23.9979 27.7176 23.3918 27.7984 23.0572C27.9944 22.2445 27.9967 20.7219 27.8029 19.9776C27.2807 17.9716 25.6237 16.1075 23.7601 15.4292C22.8292 15.0904 22.686 15.0777 19.2277 15.0266L15.7814 14.9758L15.4567 14.7129C15.0521 14.3853 14.8097 13.9439 14.8097 13.5353C14.8097 13.0755 15.1516 12.4911 15.5548 12.2616C15.8884 12.0718 15.9585 12.0676 18.7223 12.0661C20.2769 12.0653 21.8802 12.0241 22.2851 11.9745C23.3518 11.8439 24.1445 11.4498 24.8915 10.6786ZM8.36217 22.1548C8.27606 22.0408 8.2055 21.9114 8.2055 21.8673C8.2055 21.7311 15.4871 21.8232 15.8525 21.964C16.3039 22.1379 16.6839 22.5404 17.1309 23.3179C18.3916 25.5109 19.3787 26.5253 20.4658 26.7453C20.7066 26.7941 19.2509 26.8164 16.5477 26.8056C12.6663 26.7899 12.207 26.7731 11.8436 26.6342C11.1472 26.3679 10.8047 25.979 9.632 24.1233C9.01981 23.1546 8.44838 22.2688 8.36217 22.1548Z" fill="white"/>
</svg>
